# AST/ASF file generated using VICON BodyLanguage
# -----------------------------------------------
:version 1.10
:name VICON
:units
  mass 1.0
  length 0.45
  angle deg
:documentation
   .ast/.asf automatically generated from VICON data using
   VICON BodyBuilder and BodyLanguage model FoxedUp or BRILLIANT.MOD
:root
   order TX TY TZ RX RY RZ
   axis XYZ
   position 0 0 0  
   orientation 0 0 0 
:bonedata
  begin
     id 1 
     name lhipjoint
     direction 0.558404 -0.748506 0.357664 
     length 2.4234 
     axis 0 0 0  XYZ
  end
  begin
     id 2 
     name lfemur
     direction 0.34202 -0.939693 0  
     length 7.14567  
     axis 0 0 20  XYZ
    dof rx ry rz
    limits (-160.0 20.0)
           (-70.0 70.0)
           (-60.0 70.0)
  end
  begin
     id 3 
     name ltibia
     direction 0.34202 -0.939693 0   
     length 8.13956   
     axis 0 0 20   XYZ
    dof rx
    limits (-10.0 170.0)
  end
  begin
     id 4 
     name lfoot
     direction 0.0791314 -0.217412 0.972867   
     length 2.00134   
     axis -90 7.62852e-016 20   XYZ
    dof rx rz
    limits (-45.0 90.0)
           (-70.0 20.0)
  end
  begin
     id 5 
     name ltoes
     direction 1.53547e-011 -4.21922e-011 1   
     length 1.00735   
     axis -90 7.62852e-016 20   XYZ
    dof rx
    limits (-90.0 20.0)
  end
  begin
     id 6 
     name rhipjoint
     direction -0.496392 -0.78327 0.374276   
     length 2.31584  
     axis 0 0 0  XYZ 
  end
  begin
     id 7 
     name rfemur
     direction -0.34202 -0.939693 0   
     length 7.47417   
     axis 0 0 -20   XYZ
    dof rx ry rz
    limits (-160.0 20.0)
           (-70.0 70.0)
           (-70.0 60.0)
  end
  begin
     id 8 
     name rtibia
     direction -0.34202 -0.939693 0   
     length 7.69071   
     axis 0 0 -20   XYZ
    dof rx
    limits (-10.0 170.0)
 end
 begin
     id 9 
     name rfoot
     direction -0.103069 -0.28318 0.953512   
     length 2.16135  
     axis -90 -7.62852e-016 -20   XYZ
    dof rx rz
    limits (-45.0 90.0)
           (-20.0 70.0)
  end
  begin
     id 10 
     name rtoes
     direction -1.53581e-011 -4.21904e-011 1   
     length 1.07867   
     axis -90 -7.62852e-016 -20   XYZ
    dof rx
    limits (-90.0 20.0)
  end
  begin
     id 11 
     name lowerback
     direction -0.0258961 0.994776 -0.0987407   
     length 2.19412   
     axis 0 0 0   XYZ
    dof rx ry rz
    limits (-20.0 45.0)
           (-30.0 30.0)
           (-30.0 30.0)
  end
  begin
     id 12 
     name upperback
     direction 0.0402454 0.999185 0.00320666   
     length 2.18445   
     axis 0 0 0   XYZ
    dof rx ry rz
    limits (-20.0 45.0)
           (-30.0 30.0)
           (-30.0 30.0)
  end
  begin
     id 13 
     name thorax
     direction 0.0519376 0.997415 0.0496558   
     length 2.21487   
     axis 0 0 0   XYZ
    dof rx ry rz
    limits (-20.0 45.0)
           (-30.0 30.0)
           (-30.0 30.0)
  end
  begin
     id 14 
     name lowerneck
     direction -0.0921276 0.983211 0.157506   
     length 1.61201   
     axis 0 0 0   XYZ
    dof rx ry rz
    limits (-20.0 45.0)
           (-30.0 30.0)
           (-30.0 30.0)
  end
  begin
     id 15 
     name upperneck
     direction 0.0820814 0.98162 -0.172292   
     length 1.65275   
     axis 0 0 0   XYZ
    dof rx ry rz
    limits (-20.0 45.0)
           (-30.0 30.0)
           (-30.0 30.0)
  end
  begin
     id 16
     name head
     direction 0.0336554 0.996413 -0.0776455  
     length 1.66415  
     axis 0 0 0   XYZ
    dof rx ry rz
    limits (-20.0 45.0)
           (-30.0 30.0)
           (-30.0 30.0)
  end
  begin
     id 17 
     name lclavicle
     direction 0.94696 0.284418 -0.149576  
     length 3.41447  
     axis 0 0 0   XYZ
    dof ry rz
    limits (-20.0 10.0)
           (0.0 20.0)
  end
  begin
     id 18 
     name lhumerus
     direction 1 -0.000130264 -9.81312e-005   
     length 5.19964   
     axis 180 -30 -90   XYZ
    dof rx ry rz
    limits (-60.0 90.0)
           (-90.0 90.0)
           (-90.0 90.0)
  end
  begin
     id 19
     name lradius
     direction 1 -4.48961e-011 1.43854e-026   
     length 3.32189   
     axis 180 -30 -90   XYZ
    dof rx
    limits (-10.0 170.0)
  end
  begin
     id 20
     name lwrist
     direction 1 -4.48958e-011 3.1502e-026   
     length 1.66095   
     axis -1.97692e-014 90 90   XYZ
    dof ry
    limits (-180.0 0.0)
 end
  begin
     id 21 
     name lhand
     direction 1 -4.48927e-011 6.3004e-026   
     length 0.645616   
     axis -4.02019e-014 90 90   XYZ
    dof rx rz
    limits (-90.0 90.0)
           (-45.0 45.0)
  end
  begin
     id 22 
     name lfingers
     direction 1 -4.4904e-011 1.26008e-025   
     length 0.520512   
     axis -8.04039e-014 90 90   XYZ
    dof rx
    limits (0.0 90.0)
  end
  begin
     id 23
     name lthumb
     direction 0.707107 -6.34947e-011 0.707107   
     length 0.747354   
     axis -90 45 2.85299e-015   XYZ
    dof rx rz
    limits (-45.0 45.0)
           (-45.0 45.0)
  end
  begin
     id 24 
     name rclavicle
     direction -0.909391 0.383475 -0.161107   
     length 3.25176  
     axis 0 0 0   XYZ 
    dof ry rz
    limits (-10.0 20.0)
           (-20.0 0.0)
  end
  begin
     id 25 
     name rhumerus
     direction -1 -4.48965e-011 -1.81384e-027  
     length 5.6595   
     axis 180 30 90   XYZ
    dof rx ry rz
    limits (-90.0 60.0)
           (-90.0 90.0)
           (-90.0 90.0)
  end
  begin
     id 26 
     name rradius
     direction -1 -4.48996e-011 -8.09397e-027   
     length 3.37604   
     axis 180 30 90   XYZ
    dof rx
    limits (-10.0 170.0)
  end
  begin
     id 27 
     name rwrist
     direction -1 -4.48927e-011 -1.56669e-026   
     length 1.68802   
     axis 1.21142e-014 -90 -90   XYZ
    dof ry
    limits (-180.0 0.0)
  end
  begin
     id 28
     name rhand
     direction -1 -4.48912e-011 -3.13339e-026   
     length 0.824702   
     axis 1.99937e-014 -90 -90   XYZ
    dof rx rz
    limits (-90.0 90.0)
           (-45.0 45.0)
  end
  begin
     id 29
     name rfingers
     direction -1 -4.49011e-011 -6.26677e-026   
     length 0.664896   
     axis 3.99874e-014 -90 -90   XYZ
    dof rx
    limits (0.0 90.0)
  end
  begin
     id 30
     name rthumb
     direction -0.707107 -6.34931e-011 0.707107   
     length 0.954662   
     axis -90 -45 -2.85299e-015   XYZ
    dof rx rz
    limits (-45.0 45.0)
           (-45.0 45.0)
  end
:hierarchy
  begin
    root lhipjoint rhipjoint lowerback
    lhipjoint lfemur
    lfemur ltibia
    ltibia lfoot
    lfoot ltoes
    rhipjoint rfemur
    rfemur rtibia
    rtibia rfoot
    rfoot rtoes
    lowerback upperback
    upperback thorax
    thorax lowerneck lclavicle rclavicle
    lowerneck upperneck
    upperneck head
    lclavicle lhumerus
    lhumerus lradius
    lradius lwrist
    lwrist lhand lthumb
    lhand lfingers
    rclavicle rhumerus
    rhumerus rradius
    rradius rwrist
    rwrist rhand rthumb
    rhand rfingers
  end

#!OML:ASF F:\VICON\USERDATA\INSTALL\rory3\rory3.ASF
:FULLY-SPECIFIED
:DEGREES
304
root 8.39816 17.6634 -30.1643 21.5226 -52.0078 -7.15287
lowerback 10.1735 -0.765471 -5.96915
upperback 1.62259 -1.57433 2.79968
thorax -3.76757 -0.705481 6.53207
lowerneck -13.2236 3.43479 -8.67762
upperneck 21.0425 4.72965 8.19792
head 8.25771 2.33374 4.71286
rclavicle -1.72943e-014 3.06128e-014
rhumerus -33.4107 -13.4457 -71.7508
rradius 45.5587
rwrist -17.5823
rhand -12.4727 17.8536
rfingers 7.12502
rthumb 13.6015 -11.6821
lclavicle -1.72943e-014 3.06128e-014
lhumerus -15.598 22.9647 75.0797
lradius 27.7766
lwrist -7.07448
lhand -2.56906 35.7045
lfingers 7.12502
lthumb 23.1275 64.3363
rfemur -33.3658 5.74704 10.1925
rtibia 70.764
rfoot 0.53314 -9.497
rtoes 16.073
lfemur -27.4224 -4.00098 -26.7542
ltibia 46.5719
lfoot -23.6268 0.408541
ltoes 16.5902
305
root 8.35401 17.6428 -30.0072 21.4546 -52.0027 -6.82018
lowerback 10.2209 -0.762805 -6.15207
upperback 1.67438 -1.59927 2.63093
thorax -3.73532 -0.718868 6.46022
lowerneck -13.5851 3.39643 -8.25302
upperneck 21.2735 4.62353 8.09622
head 8.42652 2.30579 4.62027
rclavicle 4.09496e-014 -4.17448e-014
rhumerus -33.5064 -13.8397 -71.8809
rradius 45.4532
rwrist -17.3448
rhand -11.9415 18.1449
rfingers 7.12502
rthumb 14.1134 -11.3558
lclavicle 4.09496e-014 -4.17448e-014
lhumerus -14.8656 22.4505 75.0407
lradius 27.6238
lwrist -7.22103
lhand -3.96487 33.9151
lfingers 7.12502
lthumb 21.7877 62.7087
rfemur -34.7282 5.65728 10.0797
rtibia 71.3796
rfoot -1.26605 -9.85873
rtoes 19.3729
lfemur -26.9215 -4.18887 -27.4436
ltibia 46.3143
lfoot -23.4399 1.64209
ltoes 9.33963
306
root 8.31126 17.6221 -29.8571 21.3326 -51.8893 -6.31794
lowerback 10.2693 -0.739948 -6.37329
upperback 1.68416 -1.60419 2.39997
thorax -3.75163 -0.718552 6.34245
lowerneck -16.5674 3.28377 -5.83808
upperneck 24.0209 4.35068 6.50576
head 10.0814 2.17453 3.85161
rclavicle -4.59193e-014 2.46493e-014
rhumerus -33.693 -14.3054 -72.0035
rradius 45.3755
rwrist -16.9493
rhand -11.9548 18.1717
rfingers 7.12502
rthumb 14.1006 -11.3299
lclavicle -4.59193e-014 2.46493e-014
lhumerus -14.1346 21.5682 75.0655
lradius 27.7025
lwrist -7.45164
lhand -5.0571 33.3839
lfingers 7.12502
lthumb 20.7386 62.2957
rfemur -36.1838 5.3477 9.96444
rtibia 71.8916
rfoot -2.70708 -9.88049
rtoes 19.6248
lfemur -26.4558 -4.51407 -28.1841
ltibia 45.9871
lfoot -23.3032 2.58717
ltoes 4.60848
307
root 8.26301 17.5961 -29.7054 21.5124 -51.9749 -6.36729
lowerback 10.3818 -0.655547 -6.42492
upperback 1.74034 -1.51006 2.26152
thorax -3.77219 -0.672778 6.21497
lowerneck -14.1313 3.27405 -7.15221
upperneck 21.3838 4.28537 7.86014
head 8.63131 2.21456 4.34718
rclavicle 3.99557e-014 1.86858e-014
rhumerus -33.9106 -14.5034 -72.0593
rradius 45.3294
rwrist -16.1053
rhand -11.8865 18.163
rfingers 7.12502
rthumb 14.1663 -11.3339
lclavicle 3.99557e-014 1.86858e-014
lhumerus -13.5509 21.544 74.9462
lradius 27.9802
lwrist -7.56855
lhand -4.88264 33.9117
lfingers 7.12502
lthumb 20.9062 62.8052
rfemur -37.5612 5.41935 10.1782
rtibia 72.3179
rfoot -3.856 -9.64559
rtoes 22.2676
lfemur -25.8633 -4.06242 -28.6734
ltibia 45.6633
lfoot -23.1988 3.12806
ltoes 0.635236
308
root 8.21728 17.5689 -29.5584 21.9204 -51.9451 -6.58284
lowerback 10.5255 -0.658713 -6.51348
upperback 1.73535 -1.53197 2.29348
thorax -3.85053 -0.679133 6.30777
lowerneck -13.7601 3.29498 -7.42084
upperneck 20.8977 4.29985 8.18017
head 8.38044 2.23797 4.47054
rclavicle 2.50469e-014 4.69132e-014
rhumerus -34.0162 -14.0988 -72.2827
rradius 45.4756
rwrist -16.6306
rhand -12.0862 17.9828
rfingers 7.12502
rthumb 13.9739 -11.5276
lclavicle 2.50469e-014 4.69132e-014
lhumerus -12.9946 21.7262 74.7648
lradius 28.1086
lwrist -7.1465
lhand -4.49169 34.2136
lfingers 7.12502
lthumb 21.2817 63.0651
rfemur -39.1056 5.46167 10.5993
rtibia 72.6923
rfoot -5.1196 -9.40547
rtoes 23.4479
lfemur -25.4126 -3.47618 -29.0105
ltibia 45.3585
lfoot -22.9949 3.38687
ltoes -2.18212
309
root 8.17355 17.5398 -29.4092 22.3792 -51.7384 -6.83145
lowerback 10.6493 -0.69967 -6.47373
upperback 1.72195 -1.58656 2.36949
thorax -3.92373 -0.703024 6.37795
lowerneck -13.5411 3.29522 -7.54626
upperneck 20.5703 4.29227 8.34115
head 8.22291 2.24425 4.52489
rclavicle 2.38542e-015 1.90833e-014
rhumerus -34.1184 -13.9638 -72.3706
rradius 45.5236
rwrist -16.8108
rhand -12.0007 18.0708
rfingers 7.12502
rthumb 14.0563 -11.4339
lclavicle 2.38542e-015 1.90833e-014
lhumerus -12.4027 21.5568 74.6605
lradius 28.0024
lwrist -7.00897
lhand -4.61276 33.7581
lfingers 7.12502
lthumb 21.1654 62.6227
rfemur -40.687 5.23915 11.1831
rtibia 72.9972
rfoot -6.36892 -9.20015
rtoes 22.7456
lfemur -24.9855 -2.94551 -29.2972
ltibia 45.11
lfoot -22.7992 4.09414
ltoes -7.857
310
root 8.12739 17.5049 -29.262 22.783 -51.5165 -6.86151
lowerback 10.6312 -0.758853 -6.49085
upperback 1.68604 -1.66702 2.33612
thorax -3.93938 -0.740669 6.36269
lowerneck -13.6646 3.26501 -7.24001
upperneck 20.4806 4.19951 8.31136
head 8.23257 2.22437 4.45565
rclavicle -1.33186e-014 -5.56597e-015
rhumerus -34.3053 -13.9777 -72.5527
rradius 45.5816
rwrist -16.8231
rhand -11.9956 18.2058
rfingers 7.12502
rthumb 14.0612 -11.2985
lclavicle -1.33186e-014 -5.56597e-015
lhumerus -11.8178 21.4081 74.4569
lradius 27.8769
lwrist -7.27299
lhand -4.82869 32.8214
lfingers 7.12502
lthumb 20.958 61.7091
rfemur -42.4085 4.8952 11.6464
rtibia 73.2325
rfoot -7.50462 -9.04457
rtoes 20.8799
lfemur -24.6909 -2.31152 -29.6603
ltibia 44.8334
lfoot -22.6129 4.62739
ltoes -13.0476
311
root 8.08745 17.4834 -29.1338 23.0432 -50.9597 -6.54128
lowerback 10.8737 -1.02943 -6.88322
upperback 1.49277 -2.08042 2.50666
thorax -4.19206 -0.921105 6.83988
lowerneck -13.7699 3.37901 -7.2986
upperneck 20.4725 4.3956 8.23584
head 8.23259 2.30664 4.46115
rclavicle 6.44062e-014 1.66979e-014
rhumerus -34.3782 -13.6367 -72.5946
rradius 45.5966
rwrist -16.8087
rhand -11.8683 18.2758
rfingers 7.12502
rthumb 14.1839 -11.22
lclavicle 6.44062e-014 1.66979e-014
lhumerus -11.477 21.4021 74.2641
lradius 27.785
lwrist -7.03112
lhand -4.78817 32.6645
lfingers 7.12502
lthumb 20.9969 61.5479
rfemur -44.2303 4.25574 12.1607
rtibia 73.3394
rfoot -9.69678 -7.39746
rtoes 16.0248
lfemur -24.6418 -2.02097 -29.9243
ltibia 44.527
lfoot -22.5526 4.05045
ltoes -13.612
312
root 8.03936 17.4668 -28.9718 23.1021 -50.6657 -6.48122
lowerback 11.2027 -1.31986 -7.18461
upperback 1.51789 -2.51212 2.77296
thorax -4.25011 -1.12777 7.37214
lowerneck -13.8223 3.62908 -7.69117
upperneck 20.301 4.86281 8.15677
head 8.13531 2.49428 4.53719
rclavicle 3.37934e-014 8.11041e-014
rhumerus -34.2041 -12.6469 -72.644
rradius 45.6853
rwrist -17.1418
rhand -11.915 18.2523
rfingers 7.12502
rthumb 14.1389 -11.2466
lclavicle 3.37934e-014 8.11041e-014
lhumerus -11.2219 21.7862 74.0631
lradius 27.7668
lwrist -6.78118
lhand -4.51396 32.7524
lfingers 7.12502
lthumb 21.2603 61.6064
rfemur -45.4966 3.75671 12.7391
rtibia 73.2579
rfoot -10.1333 -7.14151
rtoes 16.6752
lfemur -24.1249 -2.31701 -30.1278
ltibia 44.1543
lfoot -22.4087 2.92292
ltoes -5.83244
313
root 7.98204 17.4503 -28.787 23.1893 -50.6206 -6.5884
lowerback 11.2643 -1.55941 -7.27244
upperback 1.71088 -2.84098 2.82619
thorax -4.01384 -1.30863 7.51926
lowerneck -14.0902 3.85421 -7.61514
upperneck 20.218 5.20102 8.06327
head 8.13164 2.65615 4.52981
rclavicle 2.5842e-014 -3.4191e-014
rhumerus -34.0153 -11.4763 -73.1088
rradius 45.9505
rwrist -17.6261
rhand -12.7154 17.8446
rfingers 7.12502
rthumb 13.3675 -11.7066
lclavicle 2.5842e-014 -3.4191e-014
lhumerus -10.8889 22.0726 73.6065
lradius 27.958
lwrist -6.59856
lhand -4.53144 32.4703
lfingers 7.12502
lthumb 21.2436 61.3262
rfemur -46.5679 3.42769 13.2699
rtibia 73.0391
rfoot -10.4516 -6.73596
rtoes 21.2096
lfemur -23.3775 -2.80806 -30.4001
ltibia 43.7515
lfoot -21.8761 1.17255
ltoes 12.6406
314
root 7.93399 17.4343 -28.6349 23.4629 -50.0395 -6.26121
lowerback 11.1979 -1.94924 -7.50073
upperback 1.64634 -3.37879 2.86626
thorax -3.93141 -1.57354 7.75971
lowerneck -14.2507 4.02475 -7.45936
upperneck 20.2306 5.41901 8.02352
head 8.15181 2.76835 4.51686
rclavicle -3.18055e-014 1.74931e-014
rhumerus -33.9466 -10.8238 -73.5117
rradius 46.1353
rwrist -17.5765
rhand -12.9103 17.715
rfingers 7.12502
rthumb 13.1796 -11.8484
lclavicle -3.18055e-014 1.74931e-014
lhumerus -10.5881 22.2465 73.1343
lradius 28.2282
lwrist -6.36969
lhand -4.81092 32.2512
lfingers 7.12502
lthumb 20.9751 61.137
rfemur -48.2756 2.58507 13.9265
rtibia 72.7895
rfoot -12.0158 -5.64778
rtoes 13.8879
lfemur -23.2744 -3.22601 -30.6099
ltibia 43.3603
lfoot -21.5019 0.266456
ltoes 15.5136
315
root 7.88351 17.4143 -28.4763 23.7165 -49.5247 -6.03177
lowerback 11.2027 -2.11074 -7.61776
upperback 1.62141 -3.6066 2.87268
thorax -3.91001 -1.68484 7.86296
lowerneck -14.4375 4.00655 -7.24734
upperneck 20.1745 5.35917 8.02646
head 8.17881 2.76018 4.48218
rclavicle -1.35174e-014 3.65764e-014
rhumerus -34.0708 -11.0511 -73.486
rradius 46.2708
rwrist -17.2101
rhand -12.3771 18.019
rfingers 7.12502
rthumb 13.6936 -11.5105
lclavicle -1.35174e-014 3.65764e-014
lhumerus -9.85129 22.133 72.9599
lradius 28.1668
lwrist -6.69919
lhand -5.02545 32.059
lfingers 7.12502
lthumb 20.769 60.9675
rfemur -49.9048 1.76588 14.7259
rtibia 72.4785
rfoot -12.5566 -5.13373
rtoes 11.3748
lfemur -23.0158 -3.46144 -30.8122
ltibia 42.9007
lfoot -21.1887 -0.449172
ltoes 15.8068
